<?xml version="1.0" encoding="UTF-8" standalone="no"?>
<svg
   version="1.1"
   width="137.09019"
   height="23.877419"
   style="clip-rule:evenodd;fill-rule:evenodd;image-rendering:optimizeQuality;shape-rendering:geometricPrecision;text-rendering:geometricPrecision"
   id="svg14"
   sodipodi:docname="logo.svg"
   inkscape:version="1.4 (86a8ad7, 2024-10-11)"
   xmlns:inkscape="http://www.inkscape.org/namespaces/inkscape"
   xmlns:sodipodi="http://sodipodi.sourceforge.net/DTD/sodipodi-0.dtd"
   xmlns="http://www.w3.org/2000/svg"
   xmlns:svg="http://www.w3.org/2000/svg">
  <defs
     id="defs14" />
  <sodipodi:namedview
     id="namedview14"
     pagecolor="#ffffff"
     bordercolor="#000000"
     borderopacity="0.25"
     inkscape:showpageshadow="2"
     inkscape:pageopacity="0.0"
     inkscape:pagecheckerboard="0"
     inkscape:deskcolor="#d1d1d1"
     inkscape:zoom="8.3339564"
     inkscape:cx="81.173931"
     inkscape:cy="17.458695"
     inkscape:window-width="1920"
     inkscape:window-height="1017"
     inkscape:window-x="-8"
     inkscape:window-y="-8"
     inkscape:window-maximized="1"
     inkscape:current-layer="svg14" />
  <g
     id="g1"
     transform="matrix(0.04536406,0,0,0.04608983,-4.2415385,-3.0188839)">
    <path
       style="opacity:0.993"
       fill="#f4375b"
       d="m 319.5,65.5 c 27,0 54,0 81,0 0,133.667 0,267.333 0,401 -81.024,0.477 -162.024,-0.023 -243,-1.5 -34.953,-7.953 -56.12,-29.453 -63.5,-64.5 -0.6667,-57.333 -0.6667,-114.667 0,-172 5.4314,-27.758 20.931,-47.591 46.5,-59.5 7.023,-2.949 14.356,-4.616 22,-5 52.332,-0.5 104.666,-0.667 157,-0.5 0,-32.667 0,-65.3333 0,-98 z m -145,179 c 48.333,0 96.667,0 145,0 0,46.667 0,93.333 0,140 -48.333,0 -96.667,0 -145,0 0,-46.667 0,-93.333 0,-140 z"
       id="path1" />
  </g>
  <g
     id="g2"
     transform="matrix(0.04536406,0,0,0.04608983,-4.2415385,-3.0188839)">
    <path
       style="opacity:0.979"
       fill="#f4375b"
       d="m 454.5,65.5 c 27.333,0 54.667,0 82,0 0,27 0,54 0,81 -27.333,0 -54.667,0 -82,0 0,-27 0,-54 0,-81 z"
       id="path2" />
  </g>
  <g
     id="g3"
     transform="matrix(0.04536406,0,0,0.04608983,-4.2415385,-3.0188839)">
    <path
       style="opacity:0.988"
       fill="#f4375b"
       d="m 933.5,65.5 c 27,0 54,0 81,0 0,27 0,54 0,81 -27,0 -54,0 -81,0 0,-27 0,-54 0,-81 z"
       id="path3" />
  </g>
  <g
     id="g4"
     transform="matrix(0.04536406,0,0,0.04608983,-4.2415385,-3.0188839)">
    <path
       style="opacity:0.983"
       fill="#f4385b"
       d="m 2223.5,65.5 c 23.67,0 47.33,0 71,0 0,73.667 0,147.333 0,221 18.34,0.167 36.67,0 55,-0.5 36.7,-39.033 73.03,-78.366 109,-118 25.66,-0.5 51.33,-0.667 77,-0.5 0.17,6.675 0,13.342 -0.5,20 -41.02,44.85 -81.85,89.85 -122.5,135 41.02,45.184 81.85,90.517 122.5,136 0.5,6.325 0.67,12.658 0.5,19 -25.67,0.167 -51.34,0 -77,-0.5 -36.7,-39.033 -73.03,-78.366 -109,-118 -18.33,-0.5 -36.66,-0.667 -55,-0.5 0,39.667 0,79.333 0,119 -23.67,0 -47.33,0 -71,0 0,-137.333 0,-274.667 0,-412 z"
       id="path4" />
  </g>
  <g
     id="g5"
     transform="matrix(0.04536406,0,0,0.04608983,-4.2415385,-3.0188839)">
    <path
       style="opacity:0.989"
       fill="#f4385b"
       d="m 2924.5,65.5 c 23.67,0 47.33,0 71,0 0,34 0,68 0,102 40,0 80,0 120,0 0,23.667 0,47.333 0,71 -40,0 -80,0 -120,0 -0.17,55.668 0,111.334 0.5,167 0.75,0.626 1.58,1.126 2.5,1.5 39,0.5 78,0.667 117,0.5 0,23.333 0,46.667 0,70 -45.04,0.474 -90.04,-0.026 -135,-1.5 -30.65,-8.988 -49.15,-29.155 -55.5,-60.5 -0.5,-116.666 -0.67,-233.333 -0.5,-350 z"
       id="path5" />
  </g>
  <g
     id="g6"
     transform="matrix(0.04536406,0,0,0.04608983,-4.2415385,-3.0188839)">
    <path
       style="opacity:0.981"
       fill="#f4375b"
       d="m 507.5,466.5 c -3.386,-1.47 -7.053,-2.137 -11,-2 -2.333,0.167 -4.667,0.333 -7,0.5 0.556,0.383 0.889,0.883 1,1.5 -11.914,0.321 -23.747,-0.012 -35.5,-1 -0.5,-100.666 -0.667,-201.333 -0.5,-302 27.333,0 54.667,0 82,0 0.167,100.667 0,201.334 -0.5,302 -9.417,0.985 -18.917,1.318 -28.5,1 z"
       id="path6" />
  </g>
  <g
     id="g7"
     transform="matrix(0.04536406,0,0,0.04608983,-4.2415385,-3.0188839)">
    <path
       style="opacity:0.993"
       fill="#f4375b"
       d="m 642.5,163.5 c 56.001,-0.167 112.001,0 168,0.5 30.278,3.948 51.778,19.782 64.5,47.5 1.49,5.626 2.823,11.292 4,17 0.667,97 0.667,194 0,291 -4.153,24.14 -16.653,42.64 -37.5,55.5 -6.777,3.259 -13.777,5.926 -21,8 -66.666,0.5 -133.333,0.667 -200,0.5 0,-27 0,-54 0,-81 59.333,0 118.667,0 178,0 0,-12 0,-24 0,-36 -53.692,0.465 -107.359,-0.035 -161,-1.5 -28.828,-5.821 -48.995,-22.321 -60.5,-49.5 -1.202,-3.274 -2.202,-6.607 -3,-10 -0.667,-60.333 -0.667,-120.667 0,-181 9.909,-35.086 32.742,-55.42 68.5,-61 z m 11,81 c 48.333,0 96.667,0 145,0 0,46.667 0,93.333 0,140 -48.333,0 -96.667,0 -145,0 0,-46.667 0,-93.333 0,-140 z"
       id="path7" />
  </g>
  <g
     id="g8"
     transform="matrix(0.04536406,0,0,0.04608983,-4.2415385,-3.0188839)">
    <path
       style="opacity:0.991"
       fill="#f4375b"
       d="m 1014.5,167.5 c -0.83,98.499 -1.33,197.166 -1.5,296 -0.67,0.667 -1.33,1.333 -2,2 -5.01,-1.311 -9.85,-0.978 -14.5,1 -21,0 -42,0 -63,0 0,-101 0,-202 0,-303 27,0 54,0 81,0 0,1.333 0,2.667 0,4 z"
       id="path8" />
  </g>
  <g
     id="g9"
     transform="matrix(0.04536406,0,0,0.04608983,-4.2415385,-3.0188839)">
    <path
       style="opacity:0.986"
       fill="#f4385b"
       d="m 1075.5,167.5 c 132,-0.167 264,0 396,0.5 26.86,4.853 46.03,19.686 57.5,44.5 2.61,6.434 4.28,13.101 5,20 0.5,81.666 0.67,163.333 0.5,245 -23.33,0 -46.67,0 -70,0 0.17,-78.667 0,-157.334 -0.5,-236 -0.37,-0.916 -0.87,-1.75 -1.5,-2.5 -40.24,-0.83 -80.4,-0.663 -120.5,0.5 -0.5,79.333 -0.67,158.666 -0.5,238 -24,0 -48,0 -72,0 0.17,-79.334 0,-158.667 -0.5,-238 -20.26,-0.664 -40.59,-0.997 -61,-1 -20.55,0.006 -40.88,0.673 -61,2 -0.67,77.333 -0.67,154.667 0,232 1,-1.333 2,-2.667 3,-4 1.8,4.295 1.64,8.629 -0.5,13 -2.14,2.519 -4.14,2.519 -6,0 0.54,-1.248 1.21,-2.415 2,-3.5 -23.33,-0.5 -46.66,-0.667 -70,-0.5 0,-103.333 0,-206.667 0,-310 z"
       id="path9" />
  </g>
  <g
     id="g10"
     transform="matrix(0.04536406,0,0,0.04608983,-4.2415385,-3.0188839)">
    <path
       style="opacity:0.986"
       fill="#f4385b"
       d="m 1574.5,167.5 c 84.33,-0.167 168.67,0 253,0.5 29.31,5.645 49.15,22.479 59.5,50.5 1.64,5.214 2.64,10.547 3,16 0.5,80.999 0.67,161.999 0.5,243 -85,0.167 -170,0 -255,-0.5 -25.88,-5.537 -44.38,-20.37 -55.5,-44.5 -1.64,-4.577 -2.98,-9.244 -4,-14 -1.46,-43.973 -1.96,-87.973 -1.5,-132 81.67,0 163.33,0 245,0 0.32,-15.715 -0.02,-31.381 -1,-47 -81.33,-1 -162.66,-1.333 -244,-1 0,-23.667 0,-47.333 0,-71 z m 71,191 c 58,0 116,0 174,0 0,16.333 0,32.667 0,49 -57,0.167 -114,0 -171,-0.5 -0.92,-0.374 -1.75,-0.874 -2.5,-1.5 -0.5,-15.663 -0.67,-31.33 -0.5,-47 z"
       id="path10" />
  </g>
  <g
     id="g11"
     transform="matrix(0.04536406,0,0,0.04608983,-4.2415385,-3.0188839)">
    <path
       style="opacity:0.984"
       fill="#f4385b"
       d="m 1998.5,167.5 c 61.33,0 122.67,0 184,0 0,23.667 0,47.333 0,71 -58.34,-0.333 -116.67,0 -175,1 -1,79.292 -1.33,158.626 -1,238 -23.67,0 -47.33,0 -71,0 -0.17,-80.667 0,-161.334 0.5,-242 3.15,-29.148 17.98,-49.982 44.5,-62.5 6.02,-2.165 12.02,-3.999 18,-5.5 z"
       id="path11" />
  </g>
  <g
     id="g12"
     transform="matrix(0.04536406,0,0,0.04608983,-4.2415385,-3.0188839)">
    <path
       style="opacity:0.989"
       fill="#f4385b"
       d="m 2617.5,167.5 c 63,-0.167 126,0 189,0.5 34.38,6.712 55.21,27.212 62.5,61.5 0.5,42.999 0.67,85.999 0.5,129 -81.33,0 -162.67,0 -244,0 -0.17,15.67 0,31.337 0.5,47 0.75,0.626 1.58,1.126 2.5,1.5 80.33,0.5 160.67,0.667 241,0.5 0,23.333 0,46.667 0,70 -84.67,0.167 -169.33,0 -254,-0.5 -33.28,-7.614 -53.45,-28.114 -60.5,-61.5 -0.67,-62 -0.67,-124 0,-186 7.47,-34.301 28.3,-54.967 62.5,-62 z m 9,71 c 57,-0.167 114,0 171,0.5 0.99,15.756 1.32,31.589 1,47.5 -57.67,0 -115.33,0 -173,0 -0.32,-16.078 0.02,-32.078 1,-48 z"
       id="path12" />
  </g>
  <g
     id="g13"
     transform="matrix(0.04536406,0,0,0.04608983,-4.2415385,-3.0188839)">
    <path
       style="opacity:0.086"
       fill="#d62743"
       d="m 1014.5,167.5 c 0.17,99.334 0,198.667 -0.5,298 -5.74,0.975 -11.57,1.308 -17.5,1 4.65,-1.978 9.49,-2.311 14.5,-1 0.67,-0.667 1.33,-1.333 2,-2 0.17,-98.834 0.67,-197.501 1.5,-296 z"
       id="path13" />
  </g>
  <g
     id="g14"
     transform="matrix(0.04536406,0,0,0.04608983,-4.2415385,-3.0188839)">
    <path
       style="opacity:0.604"
       fill="#c52133"
       d="m 507.5,466.5 c -5.667,0 -11.333,0 -17,0 -0.111,-0.617 -0.444,-1.117 -1,-1.5 2.333,-0.167 4.667,-0.333 7,-0.5 3.947,-0.137 7.614,0.53 11,2 z"
       id="path14" />
  </g>
</svg>
